<svg width="198" height="124" viewBox="0 0 198 124" fill="none" xmlns="http://www.w3.org/2000/svg">
<g clip-path="url(#clip0_42_37)">
<path d="M154.732 88.4415C144.693 109.458 123.061 124 97.9907 124C72.9206 124 51.2873 109.458 41.2483 88.4415H44.0353C53.885 108.046 74.3453 121.52 97.9897 121.52C121.634 121.52 142.096 108.046 151.945 88.4415H154.732ZM97.9907 0C122.21 0.000115227 143.221 13.5715 153.671 33.4409H150.826C140.6 14.9904 120.773 2.47993 97.9897 2.47992C75.2067 2.48008 55.3804 14.9906 45.1539 33.4409H42.3103C52.7599 13.5716 73.7716 0 97.9907 0Z" fill="#DADADA"/>
<path d="M2.45848 77.4C1.9999 77.4 1.63574 77.2667 1.36598 77C1.09623 76.7067 0.961358 76.3068 0.961358 75.8V60.16C0.961358 56.5333 1.98641 53.7067 4.03653 51.68C6.11361 49.6267 8.9864 48.6 12.6551 48.6C16.2967 48.6 19.1561 49.6267 21.2332 51.68C23.3103 53.7333 24.3488 56.56 24.3488 60.16V75.8C24.3488 76.3068 24.2139 76.7067 23.9442 77C23.6744 77.2667 23.2968 77.4 22.8113 77.4C22.3527 77.4 21.975 77.2667 21.6783 77C21.4085 76.7067 21.2737 76.3068 21.2737 75.8V66.8001H3.99607V75.8C3.99607 76.3068 3.86119 76.7067 3.59143 77C3.32168 77.2667 2.94403 77.4 2.45848 77.4ZM21.2737 64.3201V60.04C21.2737 57.1867 20.5319 55 19.0482 53.48C17.5646 51.9333 15.4335 51.16 12.6551 51.16C9.84972 51.16 7.70515 51.9201 6.22151 53.44C4.73788 54.96 3.99607 57.16 3.99607 60.04V64.3201H21.2737ZM38.563 77.4C36.6747 77.4 34.8943 77.0533 33.2219 76.3601C31.5494 75.64 30.2277 74.6534 29.2565 73.4C29.0677 73.1333 28.9733 72.8667 28.9733 72.6C28.9733 72.3333 29.0407 72.1067 29.1757 71.92C29.3375 71.7067 29.5398 71.5467 29.7826 71.44C29.9983 71.36 30.1736 71.32 30.3086 71.32C30.5514 71.32 30.7537 71.3867 30.9156 71.5201C31.1042 71.6267 31.3202 71.8133 31.563 72.08C33.3162 73.92 35.6496 74.84 38.563 74.84C39.9656 74.84 41.0986 74.6 41.9619 74.1201C42.825 73.64 43.2567 72.9733 43.2567 72.12C43.2567 71.5067 43.0813 71.0133 42.7307 70.6401C42.4069 70.24 41.8405 69.88 41.0312 69.56C40.2488 69.2133 38.9541 68.7333 37.1468 68.12C35.3934 67.5333 34.0176 66.9734 33.0196 66.4401C32.0215 65.9067 31.2796 65.3067 30.7942 64.64C30.3086 63.9467 30.0658 63.1067 30.0658 62.12C30.0658 60.5733 30.7402 59.3333 32.089 58.4C33.4647 57.4667 35.2855 57.0001 37.5514 57.0001C39.2238 57.0001 40.7749 57.2934 42.2047 57.88C43.6343 58.44 44.7134 59.2 45.4416 60.16C45.6575 60.4533 45.7654 60.7333 45.7654 61C45.7654 61.4 45.5495 61.7201 45.118 61.9601C44.8481 62.12 44.5784 62.2 44.3087 62.2C43.8501 62.2 43.4185 62 43.0139 61.6C42.3125 60.9067 41.5437 60.4 40.7076 60.08C39.8713 59.7333 38.8057 59.56 37.5109 59.56C36.0812 59.56 34.9887 59.7867 34.2335 60.24C33.4782 60.6933 33.1005 61.3333 33.1005 62.16C33.1005 62.7733 33.2489 63.2667 33.5457 63.64C33.8693 63.9867 34.3683 64.3067 35.0427 64.6C35.7441 64.8667 36.9579 65.28 38.6843 65.84C40.6266 66.48 42.1237 67.0934 43.1757 67.68C44.2547 68.24 45.0234 68.8668 45.4822 69.56C45.9677 70.2533 46.2105 71.1068 46.2105 72.12C46.2105 73.72 45.4955 75 44.0659 75.96C42.6632 76.92 40.8289 77.4 38.563 77.4ZM60.427 77.4C58.269 77.4 56.3673 76.9867 54.7218 76.16C53.0763 75.3067 51.8085 74.1067 50.9183 72.56C50.0281 71.0133 49.583 69.2133 49.583 67.16C49.583 65.1333 50.0281 63.36 50.9183 61.8401C51.8085 60.2933 53.0763 59.1067 54.7218 58.28C56.3673 57.4267 58.269 57.0001 60.427 57.0001C62.4501 57.0001 64.2036 57.28 65.6872 57.84C67.1708 58.4 68.3443 59.2267 69.2074 60.32C69.4234 60.6133 69.5312 60.8934 69.5312 61.16C69.5312 61.56 69.3288 61.92 68.9242 62.24C68.7354 62.4 68.4927 62.48 68.1959 62.48C67.7374 62.48 67.3057 62.28 66.9011 61.88C65.4714 60.3068 63.3135 59.52 60.427 59.52C57.9183 59.52 55.9762 60.1868 54.6004 61.52C53.2516 62.8267 52.5773 64.7067 52.5773 67.16C52.5773 69.5867 53.2651 71.48 54.6408 72.84C56.0166 74.2 57.9454 74.88 60.427 74.88C61.8027 74.88 63.0707 74.68 64.2306 74.28C65.3905 73.8533 66.3481 73.2533 67.1034 72.48C67.5621 72.0267 67.9936 71.8 68.3982 71.8C68.641 71.8 68.9107 71.9067 69.2074 72.12C69.5852 72.44 69.774 72.7867 69.774 73.16C69.774 73.5067 69.6256 73.8 69.3288 74.04C68.0071 75.2133 66.6314 76.0668 65.2016 76.6001C63.772 77.1334 62.1805 77.4 60.427 77.4ZM84.0428 77.4C80.536 77.4 77.825 76.5067 75.9098 74.72C73.9945 72.9333 73.0369 70.4001 73.0369 67.12C73.0369 63.9733 74.008 61.5067 75.9503 59.72C77.8925 57.9067 80.5495 57.0001 83.9214 57.0001C85.9985 57.0001 87.8464 57.3333 89.4648 58.0001C91.0833 58.64 92.3377 59.56 93.2278 60.76C94.145 61.9333 94.6036 63.28 94.6036 64.8C94.6036 65.92 94.2799 66.7867 93.6325 67.4C93.012 68.0133 92.1488 68.32 91.0429 68.32H76.0717C76.0717 70.3733 76.773 71.9867 78.1757 73.16C79.5784 74.3067 81.5341 74.88 84.0428 74.88C85.5804 74.88 86.9021 74.72 88.0082 74.4C89.1141 74.0533 90.1527 73.5067 91.1239 72.7601C91.6363 72.3333 92.0545 72.12 92.3782 72.12C92.621 72.12 92.8502 72.2267 93.066 72.44C93.4437 72.7601 93.6325 73.0933 93.6325 73.44C93.6325 73.7068 93.4706 74 93.147 74.32C92.0409 75.36 90.7461 76.1333 89.2625 76.64C87.7789 77.1467 86.039 77.4 84.0428 77.4ZM90.1527 65.96C90.6383 65.96 91.0025 65.8667 91.2452 65.6801C91.4879 65.4667 91.6093 65.0933 91.6093 64.5601C91.6093 63.6 91.2857 62.7333 90.6383 61.9601C89.9909 61.1867 89.0737 60.5867 87.8868 60.16C86.7268 59.7333 85.405 59.52 83.9214 59.52C81.5205 59.52 79.6188 60.1067 78.2162 61.28C76.8405 62.4268 76.1526 63.9867 76.1526 65.96H90.1527ZM100.426 77.4C99.9676 77.4 99.6035 77.2667 99.3334 77C99.0906 76.7067 98.9691 76.3068 98.9691 75.8V58.6C98.9691 58.0933 99.0906 57.7068 99.3334 57.44C99.5762 57.1467 99.9404 57.0001 100.426 57.0001C100.884 57.0001 101.235 57.1467 101.478 57.44C101.748 57.7068 101.883 58.0933 101.883 58.6V60.96C102.881 59.6534 104.081 58.6667 105.484 58.0001C106.913 57.3333 108.478 57.0001 110.177 57.0001C112.74 57.0001 114.709 57.7068 116.085 59.1201C117.488 60.5333 118.189 62.56 118.189 65.2V75.8C118.189 76.3068 118.055 76.7067 117.784 77C117.515 77.2667 117.15 77.4 116.691 77.4C116.206 77.4 115.842 77.2667 115.6 77C115.356 76.7067 115.235 76.3068 115.235 75.8V65.2C115.235 61.4133 113.428 59.52 109.813 59.52C107.439 59.52 105.525 60.2133 104.067 61.6C102.639 62.9867 101.923 64.8267 101.923 67.12V75.8C101.923 76.28 101.789 76.6667 101.518 76.96C101.276 77.2534 100.911 77.4 100.426 77.4ZM133.122 77.4C129.777 77.4 127.135 76.5067 125.192 74.72C123.277 72.9067 122.319 70.44 122.319 67.32C122.319 65.3467 122.737 63.5867 123.574 62.04C124.436 60.4667 125.678 59.2401 127.296 58.36C128.942 57.4533 130.91 57.0001 133.204 57.0001C135.146 57.0001 136.792 57.36 138.14 58.08C139.516 58.8 140.73 59.8 141.781 61.08L141.822 48.24C141.822 47.7333 141.944 47.3467 142.187 47.0801C142.456 46.7867 142.834 46.64 143.32 46.64C143.778 46.64 144.128 46.7867 144.371 47.0801C144.642 47.3467 144.776 47.7333 144.776 48.24V75.8C144.776 76.3068 144.642 76.7067 144.371 77C144.128 77.2667 143.778 77.4 143.32 77.4C142.862 77.4 142.497 77.2667 142.227 77C141.957 76.7067 141.822 76.3068 141.822 75.8V73.2401C140.879 74.6 139.665 75.64 138.181 76.3601C136.724 77.0533 135.038 77.4 133.122 77.4ZM133.366 74.88C135.982 74.88 138.046 74.2 139.557 72.84C141.066 71.4533 141.822 69.5734 141.822 67.2C141.822 65.6267 141.431 64.2667 140.648 63.12C139.894 61.9467 138.869 61.0533 137.574 60.44C136.306 59.8267 134.917 59.52 133.406 59.52C130.87 59.52 128.888 60.24 127.458 61.68C126.029 63.0933 125.313 64.9734 125.313 67.32C125.313 69.8267 126.014 71.72 127.418 73.0001C128.82 74.2533 130.803 74.88 133.366 74.88Z" fill="#FFF7F7"/>
<path d="M155.019 42.92C155.959 42.92 156.735 43.1758 157.35 43.6876C157.965 44.1996 158.272 44.9044 158.272 45.8002V74.5996C158.272 75.4956 157.965 76.2002 157.35 76.7122C156.735 77.224 155.958 77.4798 155.019 77.4798C154.048 77.4798 153.272 77.2239 152.689 76.7122C152.107 76.2002 151.814 75.4956 151.814 74.5996V45.8002C151.814 44.9044 152.107 44.1996 152.689 43.6876C153.272 43.1759 154.048 42.92 155.019 42.92ZM182.179 42.92C185.319 42.92 188.038 43.5124 190.336 44.6964C192.634 45.8804 194.383 47.5925 195.58 49.8324C196.811 52.0724 197.425 54.7127 197.425 57.7525V74.5515C197.425 75.4475 197.134 76.1522 196.552 76.6641C195.969 77.1759 195.192 77.4317 194.22 77.4317C193.25 77.4317 192.457 77.1758 191.842 76.6641C191.26 76.1202 190.967 75.4155 190.967 74.5515V66.7274H173.391V74.5515C173.391 75.4155 173.082 76.1202 172.467 76.6641C171.885 77.1759 171.108 77.4317 170.137 77.4317C169.166 77.4317 168.389 77.1761 167.807 76.6641C167.224 76.1522 166.933 75.4474 166.933 74.5515V57.7525C166.933 53.1125 168.276 49.4801 170.963 46.8561C173.65 44.2322 177.388 42.9201 182.179 42.92ZM182.179 47.96C176.32 47.9601 173.391 51.176 173.391 57.6074V61.7846H190.967V57.6074C190.967 54.4081 190.223 52.0087 188.734 50.4088C187.277 48.7768 185.093 47.96 182.179 47.96Z" fill="#08FFC8"/>
</g>
<defs>
<clipPath id="clip0_42_37">
<rect width="198" height="124" fill="white"/>
</clipPath>
</defs>
</svg>
